<svg width="41" height="41" viewBox="0 0 41 41" fill="none" xmlns="http://www.w3.org/2000/svg">
<g filter="url(#filter0_d_254_788)">
<path fill-rule="evenodd" clip-rule="evenodd" d="M8.1538 22.0318C7.97635 21.1884 7.11748 20.804 6.34985 20.7086C5.65405 20.6222 4.8208 20.8602 4.39175 21.4531C4.2776 21.6101 4.2112 21.7911 4.18324 21.9835C4.07802 22.7135 4.53231 23.6095 5.05649 24.0281C5.649 24.5016 6.4046 24.469 7.07515 24.1753C7.86142 23.8302 8.33163 22.8784 8.1538 22.0318Z" fill="white"/>
<path fill-rule="evenodd" clip-rule="evenodd" d="M13.7652 26.5012C13.3769 26.6983 13.0612 27.334 12.9541 27.7011C12.7607 28.3639 13.0418 29.3875 13.7469 29.6416C14.5134 29.918 14.9238 29.3184 14.9859 28.6109C15.0407 27.9874 14.8516 27.1031 14.4035 26.6409C14.1837 26.4148 13.9648 26.4002 13.7652 26.5012Z" fill="white"/>
<path fill-rule="evenodd" clip-rule="evenodd" d="M29.3972 19.0964C29.9311 19.0434 30.5088 18.8867 31.0058 18.6849C31.3448 18.5471 31.669 18.3586 31.9633 18.1289C33.2583 17.1186 33.8764 15.2036 32.7088 13.8297C32.2747 13.3189 31.5114 12.9364 30.8641 12.8332C29.6007 12.6325 28.3283 13.1104 27.0582 12.8999C26.5298 12.8124 25.931 12.6023 25.6736 12.0856C25.3405 11.4169 25.74 10.5346 25.9229 9.87494C26.395 8.17083 25.9252 6.63045 24.4016 5.70065C23.3284 5.04571 21.776 5.03 20.5763 5.25813C19.6937 5.4254 19.0996 5.95077 18.636 6.7027C18.252 7.32466 17.9713 8.40838 17.1144 8.49516C16.5036 8.5572 15.986 8.11429 15.4785 7.84336C14.914 7.54219 14.2764 7.42832 13.6571 7.6435C12.3482 8.09819 12.5012 9.47875 12.4942 10.6088C12.4907 11.1695 12.4371 11.9693 11.7176 11.9992C10.9733 12.0302 10.3035 11.3136 9.75644 10.8974C8.95232 10.2857 7.96531 10.193 7.00004 10.48C5.8022 10.8362 5.27724 12.1166 5.3747 13.2973C5.48381 14.6178 6.3388 15.5794 7.30135 16.3914C8.06742 17.0377 9.03152 17.5796 9.62831 18.4069C10.1339 19.1082 9.97699 20.0745 9.9335 20.8837C9.89506 21.5991 9.93738 22.3644 10.2461 23.0217C10.4899 23.5408 10.9954 24.0265 11.4796 24.3104C13.5352 25.5166 16.7094 25.4165 18.664 24.0697C19.4083 23.5561 20.1635 22.9145 21.1047 23.3217C21.745 23.5985 22.2098 24.1365 22.73 24.5833C23.2775 25.0537 23.9135 25.3772 24.6322 25.4746C25.4224 25.5814 26.3143 25.4094 26.9503 24.9076C27.5944 24.3991 27.8371 23.5259 27.5595 22.7508C27.2791 21.969 26.3034 21.5139 26.2948 20.5995C26.2813 19.1808 28.458 19.1902 29.3972 19.0964Z" fill="white"/>
<path fill-rule="evenodd" clip-rule="evenodd" d="M4.36372 18.0305C4.85178 18.2676 6.1432 18.2578 5.67416 17.3594C5.67028 17.352 5.6664 17.3453 5.66251 17.3378C5.46177 16.9754 5.04165 16.6743 4.62658 16.7728C4.2849 16.8541 3.97039 17.1451 4.00223 17.5299C4.02203 17.7678 4.15793 17.9304 4.36372 18.0305Z" fill="white"/>
<path fill-rule="evenodd" clip-rule="evenodd" d="M31.1744 10.1154C32.1292 9.40548 31.4078 8.21653 30.3676 8.35946C29.5538 8.47136 28.9356 9.20287 29.56 9.94656C30.0512 10.5316 30.7233 10.4515 31.1744 10.1154Z" fill="white"/>
<path fill-rule="evenodd" clip-rule="evenodd" d="M15.4747 5.37047C15.479 5.36968 15.4829 5.3689 15.4871 5.36811C16.2012 5.22126 15.8774 4.14696 15.3244 4.02446C14.5277 3.84815 14.4462 5.56365 15.4747 5.37047Z" fill="white"/>
<path fill-rule="evenodd" clip-rule="evenodd" d="M10.5656 26.5983C10.0558 26.5846 9.50132 26.7852 9.14954 27.0404C8.04216 27.8438 7.34015 29.3139 7.27609 30.6776C7.23143 31.6306 7.75289 32.7166 8.73524 32.9585C9.99133 33.2675 10.9531 31.8414 11.3534 30.8456C11.8124 29.7042 12.3839 28.1018 11.4947 27.0075C11.2661 26.7255 10.9267 26.6081 10.5656 26.5983Z" fill="white"/>
<path fill-rule="evenodd" clip-rule="evenodd" d="M19.8091 25.7214C19.7668 25.6966 19.7237 25.6766 19.6814 25.6621C19.2011 25.496 18.7604 25.9836 18.6909 26.4607C18.5872 27.1683 19.6165 27.9336 20.1229 27.2386C20.4207 26.8298 20.2242 25.9664 19.8091 25.7214Z" fill="white"/>
<path fill-rule="evenodd" clip-rule="evenodd" d="M36.8753 23.1105C36.6904 22.5977 36.2408 22.2529 35.7811 22.0048C34.5537 21.3408 32.8259 20.9167 31.4463 21.2658C30.6344 21.4708 29.9654 22.1014 30.3199 22.9676C30.8367 24.2307 32.3988 25.221 33.6219 25.6588C34.6023 26.0098 35.7756 25.8932 36.5316 25.1126C36.7386 24.8986 36.8745 24.6206 36.9436 24.3222C37.036 23.9213 37.0092 23.4827 36.8753 23.1105Z" fill="white"/>
<path fill-rule="evenodd" clip-rule="evenodd" d="M11.4469 5.95599C12.1994 6.4739 13.0447 6.19472 13.2924 5.29751C13.4147 4.85382 13.4399 4.37753 13.4023 3.89614C13.3394 3.08609 13.0994 2.26152 12.8482 1.552C12.4809 0.513437 11.4714 -0.181558 10.3659 0.0418612C9.86622 0.142773 9.52453 0.52875 9.36145 1.00229C9.02831 1.96625 9.38475 2.98204 9.82545 3.84431C10.2293 4.63236 10.7068 5.44633 11.4469 5.95599Z" fill="white"/>
</g>
<defs>
<filter id="filter0_d_254_788" x="0" y="0" width="40.9961" height="41" filterUnits="userSpaceOnUse" color-interpolation-filters="sRGB">
<feFlood flood-opacity="0" result="BackgroundImageFix"/>
<feColorMatrix in="SourceAlpha" type="matrix" values="0 0 0 0 0 0 0 0 0 0 0 0 0 0 0 0 0 0 127 0" result="hardAlpha"/>
<feOffset dy="4"/>
<feGaussianBlur stdDeviation="2"/>
<feComposite in2="hardAlpha" operator="out"/>
<feColorMatrix type="matrix" values="0 0 0 0 0 0 0 0 0 0 0 0 0 0 0 0 0 0 0.25 0"/>
<feBlend mode="normal" in2="BackgroundImageFix" result="effect1_dropShadow_254_788"/>
<feBlend mode="normal" in="SourceGraphic" in2="effect1_dropShadow_254_788" result="shape"/>
</filter>
</defs>
</svg>
