<svg width="153" height="17" viewBox="0 0 153 17" fill="none" xmlns="http://www.w3.org/2000/svg">
<path d="M3.38431 16.2642V15.899H5.4782V0.535646H2.5078C1.26607 0.535646 0.754774 1.19303 0.559994 2.9704L0.365213 4.72343H0C0 4.72343 0.146085 2.53215 0.146085 1.70433V0.170433H13.8051V1.70433C13.8051 2.53215 13.9025 4.72343 13.9025 4.72343H13.5372L13.3668 2.92171C13.2207 1.26607 12.7581 0.535646 11.492 0.535646H8.4486V15.899H10.5668V16.2642H3.38431ZM15.2172 16.2642V15.899H17.3111V0.535646H15.2172V0.170433H22.3997V0.535646H20.2815V7.986H28.2675V0.535646H26.1736V0.170433H33.3561V0.535646H31.2379V15.899H33.3561V16.2642H26.1736V15.899H28.2675V8.35121H20.2815V15.899H22.3997V16.2642H15.2172ZM33.5996 16.2642V15.899H34.0866C34.8413 15.899 35.2552 15.5337 35.6692 14.4624L41.1717 0.0973901H41.8291L48.2812 15.899H49.4742V16.2642H43.4604V15.899H45.1647L42.9978 10.6155H37.5196L36.0587 14.4624C35.7179 15.339 36.2535 15.899 37.3735 15.899H38.1039V16.2642H33.5996ZM37.6657 10.2503H42.8517L40.1735 3.70083L37.6657 10.2503ZM49.8394 16.2642V15.899H50.5699C51.6412 15.899 52.0307 15.3633 52.0307 14.4381V0.535646H49.9368V0.170433H55.2202L59.8463 12.3686L64.1801 0.170433H69.3175V0.535646H67.1992V15.899H69.3175V16.2642H62.0619V15.899H64.2288V1.14433L58.848 16.2642H58.1906L52.3959 1.11999V14.4381C52.3959 15.3633 52.7611 15.899 53.8324 15.899H54.5872V16.2642H49.8394ZM78.8617 16.4346C73.3105 16.4346 71.2409 12.7581 71.2409 8.01034C71.2409 3.14083 73.5296 0 78.8617 0C84.1695 0 86.4581 3.14083 86.4581 8.01034C86.4581 12.7581 84.3886 16.4346 78.8617 16.4346ZM78.8374 16.1181C82.5869 16.1181 83.2686 12.4173 83.2686 8.27817C83.2686 3.74952 82.6599 0.316518 78.8374 0.316518C75.0391 0.316518 74.4305 3.74952 74.4305 8.27817C74.4305 12.4173 75.1122 16.1181 78.8374 16.1181ZM88.406 16.2642V15.899H90.4998V0.535646H88.406V0.170433H95.6859C101.578 0.170433 104.037 3.23822 104.037 7.96165C104.037 12.5633 101.748 16.2642 95.6859 16.2642H88.406ZM93.4702 15.899H95.7346C99.1919 15.899 100.848 13.2451 100.848 8.22947C100.848 2.99475 99.1919 0.535646 95.7346 0.535646H93.4702V15.899ZM105.961 16.2642V15.899H108.054V0.535646H105.961V0.170433H113.24C119.133 0.170433 121.592 3.23822 121.592 7.96165C121.592 12.5633 119.303 16.2642 113.24 16.2642H105.961ZM111.025 15.899H113.289C116.747 15.899 118.402 13.2451 118.402 8.22947C118.402 2.99475 116.747 0.535646 113.289 0.535646H111.025V15.899ZM126.753 16.2642V15.899H128.847V9.51989L123.783 0.535646H122.2V0.170433H128.774V0.535646H127.046L131.574 8.64338L135.153 1.89911C135.567 1.11999 135.299 0.535646 134.179 0.535646H133.084V0.170433H137.588V0.535646H137.271C136.517 0.535646 136.103 0.876512 135.518 1.97215L131.818 8.98425V15.899H133.936V16.2642H126.753ZM137.125 16.2642V15.899H137.612C138.367 15.899 138.781 15.5337 139.195 14.4624L144.697 0.0973901H145.355L151.807 15.899H153V16.2642H146.986V15.899H148.69L146.524 10.6155H141.045L139.584 14.4624C139.244 15.339 139.779 15.899 140.899 15.899H141.63V16.2642H137.125ZM141.191 10.2503H146.377L143.699 3.70083L141.191 10.2503Z" fill="#EEEEEE"/>
</svg>
