<svg width="128" height="14" viewBox="0 0 128 14" fill="none" xmlns="http://www.w3.org/2000/svg">
<path d="M2.83132 13.6066V13.3011H4.58307V0.448122H2.09803C1.0592 0.448122 0.631445 0.998091 0.468491 2.48504L0.305538 3.95162H0C0 3.95162 0.122215 2.1184 0.122215 1.42584V0.142585H11.5493V1.42584C11.5493 2.1184 11.6308 3.95162 11.6308 3.95162H11.3253L11.1827 2.4443C11.0605 1.0592 10.6735 0.448122 9.61426 0.448122H7.06811V13.3011H8.84023V13.6066H2.83132ZM12.7307 13.6066V13.3011H14.4825V0.448122H12.7307V0.142585H18.7397V0.448122H16.9675V6.6811H23.6486V0.448122H21.8969V0.142585H27.9058V0.448122H26.1337V13.3011H27.9058V13.6066H21.8969V13.3011H23.6486V6.98663H16.9675V13.3011H18.7397V13.6066H12.7307ZM28.1095 13.6066V13.3011H28.5169C29.1483 13.3011 29.4946 12.9955 29.8409 12.0993L34.4443 0.0814767H34.9943L40.3921 13.3011H41.3902V13.6066H36.359V13.3011H37.7849L35.972 8.88097H31.3889L30.1668 12.0993C29.8816 12.8326 30.3297 13.3011 31.2667 13.3011H31.8778V13.6066H28.1095ZM31.5111 8.57543H35.8498L33.6092 3.09612L31.5111 8.57543ZM41.6957 13.6066V13.3011H42.3068C43.2031 13.3011 43.529 12.853 43.529 12.0789V0.448122H41.7772V0.142585H46.1973L50.0675 10.3476L53.6932 0.142585H57.9911V0.448122H56.219V13.3011H57.9911V13.6066H51.9211V13.3011H53.7339V0.957352L49.2323 13.6066H48.6824L43.8345 0.936983V12.0789C43.8345 12.853 44.14 13.3011 45.0363 13.3011H45.6677V13.6066H41.6957ZM65.9758 13.7492C61.3316 13.7492 59.6003 10.6735 59.6003 6.70147C59.6003 2.62763 61.515 0 65.9758 0C70.4163 0 72.331 2.62763 72.331 6.70147C72.331 10.6735 70.5996 13.7492 65.9758 13.7492ZM65.9554 13.4844C69.0923 13.4844 69.6626 10.3883 69.6626 6.92553C69.6626 3.13686 69.1534 0.2648 65.9554 0.2648C62.7778 0.2648 62.2686 3.13686 62.2686 6.92553C62.2686 10.3883 62.839 13.4844 65.9554 13.4844ZM73.9605 13.6066V13.3011H75.7123V0.448122H73.9605V0.142585H80.0509C84.9803 0.142585 87.0376 2.7091 87.0376 6.66073C87.0376 10.5105 85.1228 13.6066 80.0509 13.6066H73.9605ZM78.1973 13.3011H80.0917C82.9841 13.3011 84.3692 11.0808 84.3692 6.88479C84.3692 2.50541 82.9841 0.448122 80.0917 0.448122H78.1973V13.3011ZM88.6467 13.6066V13.3011H90.3985V0.448122H88.6467V0.142585H94.7371C99.6665 0.142585 101.724 2.7091 101.724 6.66073C101.724 10.5105 99.809 13.6066 94.7371 13.6066H88.6467ZM92.8835 13.3011H94.7779C97.6703 13.3011 99.0554 11.0808 99.0554 6.88479C99.0554 2.50541 97.6703 0.448122 94.7779 0.448122H92.8835V13.3011ZM106.042 13.6066V13.3011H107.794V7.96435L103.557 0.448122H102.233V0.142585H107.733V0.448122H106.286L110.075 7.23106L113.069 1.5888C113.416 0.936983 113.192 0.448122 112.255 0.448122H111.338V0.142585H115.106V0.448122H114.842C114.21 0.448122 113.864 0.733291 113.375 1.64991L110.279 7.51623V13.3011H112.051V13.6066H106.042ZM114.719 13.6066V13.3011H115.127C115.758 13.3011 116.104 12.9955 116.451 12.0993L121.054 0.0814767H121.604L127.002 13.3011H128V13.6066H122.969V13.3011H124.395L122.582 8.88097H117.999L116.777 12.0993C116.491 12.8326 116.94 13.3011 117.877 13.3011H118.488V13.6066H114.719ZM118.121 8.57543H122.46L120.219 3.09612L118.121 8.57543Z" fill="#EEEEEE"/>
</svg>
